<?xml version="1.0" encoding="UTF-8" standalone="no" ?>
<!DOCTYPE svg PUBLIC "-//W3C//DTD SVG 1.1//EN" "http://www.w3.org/Graphics/SVG/1.1/DTD/svg11.dtd">
<svg xmlns="http://www.w3.org/2000/svg" xmlns:xlink="http://www.w3.org/1999/xlink" version="1.1" width="400" height="400" viewBox="0 0 400 400" xml:space="preserve">
<desc>Created with Fabric.js 3.6.2</desc>
<defs>
</defs>
<g transform="matrix(0.03 0 0 0.03 200 200)" id="Layer_x0020_1"  >
<rect style="stroke: none; stroke-width: 1; stroke-dasharray: none; stroke-linecap: butt; stroke-dashoffset: 0; stroke-linejoin: miter; stroke-miterlimit: 4; fill: rgb(255,255,255); fill-rule: evenodd; opacity: 1;"  x="-3815" y="-3815" rx="0" ry="0" width="7630" height="7630" />
</g>
<g transform="matrix(0.03 0 0 0.03 200 200)" id="Layer_x0020_1"  >
<path style="stroke: none; stroke-width: 1; stroke-dasharray: none; stroke-linecap: butt; stroke-dashoffset: 0; stroke-linejoin: miter; stroke-miterlimit: 4; fill: rgb(0,0,0); fill-rule: nonzero; opacity: 1;"  transform=" translate(-3815, -3815)" d="M 4672 4604 c -75 106 -187 189 -332 248 c -144 59 -316 89 -512 89 c -235 0 -432 -41 -585 -121 c -110 -59 -201 -138 -270 -236 c -69 -99 -104 -197 -104 -291 c 0 -59 23 -110 68 -152 c 45 -42 102 -63 171 -63 c 56 0 104 16 144 49 c 38 32 70 78 96 138 c 29 66 60 121 94 164 c 32 43 78 78 137 105 c 59 28 139 42 237 42 c 136 0 247 -29 330 -85 c 82 -54 121 -120 121 -201 c 0 -64 -21 -114 -63 -153 c -45 -41 -104 -73 -174 -95 c -75 -23 -176 -48 -301 -73 c -170 -36 -314 -78 -429 -127 c -117 -49 -211 -117 -281 -202 c -70 -87 -105 -196 -105 -324 c 0 -121 37 -231 111 -326 c 73 -94 179 -168 317 -217 c 136 -50 297 -75 480 -75 c 146 0 275 17 382 50 c 108 33 199 77 270 132 c 72 56 126 115 159 177 c 34 62 51 124 51 183 c 0 58 -22 111 -67 156 c -44 46 -101 69 -168 69 c -60 0 -108 -14 -140 -43 c -31 -27 -63 -68 -98 -128 c -41 -76 -91 -137 -147 -179 c -55 -42 -147 -62 -273 -62 c -117 0 -213 23 -284 69 c -68 44 -101 94 -101 154 c 0 37 10 68 33 94 c 23 28 56 52 97 73 c 43 21 88 39 132 51 c 45 12 121 31 226 54 c 133 28 254 60 362 94 c 109 34 203 76 280 126 c 78 50 140 115 184 192 c 44 77 67 173 67 284 c 0 133 -39 254 -115 360 z m 797 -771 c 0 -891 -732 -1613 -1636 -1613 c -95 0 -189 8 -280 24 c -146 -91 -319 -144 -504 -144 c -525 0 -949 418 -949 936 c 0 172 47 333 130 473 c -22 104 -33 213 -33 324 c 0 891 732 1613 1636 1613 c 102 0 202 -10 300 -27 c 133 71 286 111 448 111 c 524 0 949 -419 949 -935 c 0 -150 -36 -291 -99 -416 c 25 -112 38 -227 38 -346 z" stroke-linecap="round" />
</g>
</svg>