<?xml version="1.0" encoding="UTF-8" standalone="no" ?>
<!DOCTYPE svg PUBLIC "-//W3C//DTD SVG 1.1//EN" "http://www.w3.org/Graphics/SVG/1.1/DTD/svg11.dtd">
<svg xmlns="http://www.w3.org/2000/svg" xmlns:xlink="http://www.w3.org/1999/xlink" version="1.1" width="400" height="400" viewBox="0 0 400 400" xml:space="preserve">
<desc>Created with Fabric.js 3.6.2</desc>
<defs>
</defs>
<g transform="matrix(0.26 0 0 0.26 200 200)" id="twitter"  >
<path style="stroke: none; stroke-width: 1; stroke-dasharray: none; stroke-linecap: butt; stroke-dashoffset: 0; stroke-linejoin: miter; stroke-miterlimit: 4; fill: rgb(255,255,255); fill-rule: evenodd; opacity: 1;"  transform=" translate(-391.58, -257.84)" d="M 0.568006269 367.372288 C 0.568006269 367.372288 31.1550389 419.041792 87.7754536 451.901952 C 152.013431 489.183232 200.576849 508.554752 270.722359 512.1536 C 340.867089 515.74784 378.904542 521.216 479.008567 483.925504 C 586.496618 443.881984 622.058154 392.818688 651.527889 354.516992 C 680.998404 316.214784 690.645969 272.051712 690.645969 272.051712 C 690.645969 272.051712 718.838314 272.180736 739.684113 264.433152 C 764.811818 255.094784 782.589073 237.879808 782.589073 237.879808 C 782.589073 237.879808 757.315358 239.569408 733.301854 236.980736 C 715.607364 235.073024 699.17699 228.887552 699.17699 228.887552 C 699.17699 228.887552 731.227268 226.997248 752.259678 216.297984 C 771.386935 206.567936 779.496324 188.027904 779.496324 188.027904 C 779.496324 188.027904 762.156318 194.199552 743.001732 194.77248 C 716.088337 195.576832 688.561233 191.175168 688.561233 191.175168 C 688.561233 191.175168 682.873886 151.551488 644.198519 99.395072 C 605.522372 47.2384 522.154794 48.1942016 522.154794 48.1942016 C 522.154794 48.1942016 590.976068 27.4615808 587.38595 15.542272 C 583.796612 3.62296832 531.397124 21.1600384 531.397124 21.1600384 C 531.397124 21.1600384 553.493764 1.39886592 546.800746 0.9834496 C 535.839095 0.303091712 496.087786 18.9685248 496.087786 18.9685248 L 498.457514 5.4797312 C 498.457514 5.4797312 436.903146 63.958528 411.012599 105.6896 C 388.085969 142.6432 374.991953 182.12608 374.991953 182.12608 L 318.1177 140.760576 C 318.1177 140.760576 152.233617 40.943616 115.265079 58.92864 C 78.2965416 76.913664 179.722462 151.551488 179.722462 151.551488 C 179.722462 151.551488 116.21297 133.566464 135.170794 174.93248 C 154.129399 216.297984 217.63889 228.887552 217.63889 228.887552 C 217.63889 228.887552 156.025182 228.887552 172.139332 260.361216 C 188.254263 291.83488 257.451102 296.331264 257.451102 296.331264 C 257.451102 296.331264 222.378346 307.122176 232.80593 334.099968 C 243.232734 361.077248 290.628074 361.07776 290.628074 361.07776 C 290.628074 361.07776 249.867972 402.443264 165.504094 416.830976 C 81.1402152 431.2192 0.568006269 367.372288 0.568006269 367.372288 Z" stroke-linecap="round" />
</g>
</svg>